<svg xmlns="http://www.w3.org/2000/svg" viewBox="0 0 448.23 564.95"><defs><style>.cls-1{fill:#e8e8e8;}.cls-2{fill:#343444;}.cls-3{fill:#d34a4a;}.cls-4{fill:#3d3d77;}.cls-5{fill:#ffba7f;}.cls-6{fill:#262260;}.cls-7{fill:#ea5e5e;}.cls-8{fill:#fff;}.cls-9{fill:#d0d2d3;}.cls-10{fill:#f4f4f4;}.cls-11{fill:#bbbdbf;}.cls-12{fill:#57585a;}.cls-13{fill:#929597;}.cls-14{fill:#3b2314;}.cls-15{fill:#221f1f;}.cls-16{fill:#d15c58;}.cls-17{fill:#f88976;}.cls-18{fill:#f69d5e;}.cls-19,.cls-20,.cls-21,.cls-22,.cls-23{fill:none;stroke:#221f1f;stroke-miterlimit:10;}.cls-19{stroke-width:2.51px;}.cls-20,.cls-22{stroke-linecap:round;}.cls-20{stroke-width:5.43px;}.cls-21{stroke-width:4.91px;}.cls-22{stroke-width:5.45px;}.cls-23{stroke-linecap:square;stroke-width:4.54px;}.cls-24{fill:#744c29;}.cls-25{fill:#4b4b70;}.cls-26{fill:#5a5a7a;}.cls-27{fill:#e20707;}</style></defs><title>Asset 1</title><g id="Layer_2" data-name="Layer 2"><g id="Capa_1" data-name="Capa 1"><path class="cls-1" d="M322.41,348.72C301,295.45,291.69,247.51,263.22,237.79c-14.4-4.91-56.57-13.23-56.57-13.23l45,91.39s10.58,19,27.68,56.52c8.47,18.59,25.6,42.56,39.95,35.61C358.08,389.29,404,326,404,326l-30.23-36.24Z"/><polygon class="cls-2" points="93.52 508.23 93.16 564.96 159.33 564.96 161.2 506.24 93.52 508.23"/><polygon class="cls-2" points="169.16 508.23 170.97 564.96 237.19 564.96 236.84 510.22 169.16 508.23"/><polygon class="cls-3" points="134.64 224.53 74.72 247.06 74.65 473.62 249.64 473.68 249.72 247.12 193.16 226.7 134.64 224.53"/><polygon class="cls-4" points="156.18 260.85 147.01 389.68 163.68 418.85 180.89 390.97 169.78 260.85 156.18 260.85"/><path class="cls-5" d="M41.75,479.65s-24.95,1-28.34,3.13S10.33,511.89,12.29,521s10.48,15.3,15.54,15.18,12.54-2.36,15-7.82.27-21.86.27-21.86,3.3,7.15,7.57,5.88,2.56-9.66,2.56-9.66Z"/><path class="cls-6" d="M162.78,231.41s-13.57.27-16.89,6.36c-7.31,13.47,10.29,25,10.29,25h13.6s14.55-10.46,10.43-20.58C176.9,234,162.78,231.41,162.78,231.41Z"/><polygon class="cls-7" points="117 226.45 138.01 255.48 163.55 230.33 120.86 202.49 117 226.45"/><polygon class="cls-7" points="162.02 230.32 187.54 255.49 206.65 228.4 204.73 202.51 162.02 230.32"/><path class="cls-8" d="M0,384.41c0,62.81,1.85,101.14,1.85,101.14l50.41-2.21s-5.14-69-1.29-110,24.83-57.4,24.83-57.4l45-91.39s-42.16,8.32-56.56,13.23C35.8,247.48,0,321.6,0,384.41Z"/><path class="cls-8" d="M120.84,224.53l-43.4,9.65-8.51,62.35S64.91,486.06,64.4,565H164.48l3.46-166.29Z"/><polygon class="cls-1" points="107.97 224.52 96.65 271.1 114.94 289.05 113.27 303.15 167.94 398.66 118.42 214.58 107.97 224.52"/><polygon class="cls-9" points="83.84 470.46 122.75 470.47 122.75 465.34 83.84 465.33 83.84 470.46"/><path class="cls-1" d="M247.73,234.23l-43.4-9.67-47.21,174.1L157.21,565H260.62C260.14,486,256.2,296.6,256.2,296.6Z"/><path class="cls-9" d="M168.3,417.26a3.84,3.84,0,1,0,3.83,3.84A3.84,3.84,0,0,0,168.3,417.26Z"/><path class="cls-9" d="M168.28,457.64a3.85,3.85,0,1,0,3.85,3.84A3.85,3.85,0,0,0,168.28,457.64Z"/><path class="cls-9" d="M168.53,500.54a3.85,3.85,0,1,0,3.84,3.85A3.84,3.84,0,0,0,168.53,500.54Z"/><polygon class="cls-9" points="201.14 470.49 240.03 470.51 240.04 465.38 201.14 465.37 201.14 470.49"/><polygon class="cls-10" points="217.21 224.56 206.77 214.61 157.12 398.66 217.61 303.18 210.19 289.08 228.49 271.15 217.21 224.56"/><path class="cls-11" d="M96.71,370.77c-4.82.73-10.85.54-12.93-1.42-1.37-1-2.89-5.15-3.57-10.83-1.53-11.35-1-28.57-1.19-42.13l-4,.05c.17,13.46-.37,30.7,1.22,42.61.87,6,2,10.68,4.95,13.35,4.28,3.41,10.84,2.93,16,2.32a61.2,61.2,0,0,0,7.56-1.5l-1-3.83A58.46,58.46,0,0,1,96.71,370.77Z"/><path class="cls-12" d="M101.18,367.9c-2.69.57-4.56,2.48-4.18,4.27s2.87,2.78,5.56,2.22,4.56-2.49,4.18-4.28S103.87,367.32,101.18,367.9Z"/><path class="cls-11" d="M136.15,308.26l-3.86,1c3.42,13.13,8.43,29.61,9.94,41,.83,5.66.46,10.07-.59,11.39-1.5,2.43-7.27,4.21-12.11,4.77a56.84,56.84,0,0,1-7.15.51v4a63.18,63.18,0,0,0,7.69-.55c5.17-.77,11.62-2,14.86-6.45,2.17-3.36,2-8.17,1.26-14.18C144.57,337.78,139.53,321.29,136.15,308.26Z"/><path class="cls-12" d="M124.47,364.77c-2.74.16-4.88,1.78-4.78,3.61s2.41,3.18,5.16,3,4.88-1.78,4.78-3.6S127.21,364.62,124.47,364.77Z"/><path class="cls-12" d="M100.52,274.17c-17.8,2.55-28.66,22.76-25.78,44.57l5.15-.69c-1.33-9.92.53-19.26,4.48-26.24s9.89-11.56,16.83-12.48,13.85,1.91,19.53,7.62,9.9,14.22,11.22,24.13l5.15-.69C134.15,288.58,118.36,272,100.52,274.17Z"/><path class="cls-12" d="M105.61,216.35a54.91,54.91,0,0,0-10.55,22.71,54.28,54.28,0,0,0-.88,10.14,94.69,94.69,0,0,0,4,25.74l4.74-1.52h0S102,270.55,101,266a84.09,84.09,0,0,1-1.87-16.84,45.9,45.9,0,0,1,10.39-29.81c4.34-5.72,9.49-9.65,12.44-10.31l-1.2-4.82C115.77,205.59,110.47,210.13,105.61,216.35Z"/><path class="cls-12" d="M219.93,216.35c-4.86-6.23-10.16-10.76-15.17-12.09l-1.21,4.82c2.95.67,8.1,4.59,12.44,10.31a50.16,50.16,0,0,1,9.6,20.58,61,61,0,0,1,.79,10.87c0,16.7-3.81,38.8-3.81,38.84l4.91.85h0c0-.06,3.87-22.31,3.88-39.68a67.63,67.63,0,0,0-.87-11.78A55,55,0,0,0,219.93,216.35Z"/><path class="cls-13" d="M219.77,288.28a17.92,17.92,0,1,0,17.91,17.92A17.91,17.91,0,0,0,219.77,288.28Z"/><path class="cls-9" d="M219.77,297.57a8.63,8.63,0,1,0,8.62,8.63A8.63,8.63,0,0,0,219.77,297.57Z"/><path class="cls-5" d="M75.36,116.59c-8.58,2.49-6.6,15.37-6.6,20.16s7.17,21.76,12,23.62c12.18,4.73,12.19-13,12.19-13V126.68S83.93,114.1,75.36,116.59Z"/><path class="cls-5" d="M250,116.8c-8.57-2.49-17.57,10.06-17.57,10.06v20.67s0,18.32,12.17,13.05c4.73-2.05,12-18.83,12-23.62S258.59,119.29,250,116.8Z"/><path class="cls-5" d="M184.37,26H141.75c-30.93,0-56,32.69-56,73l0,55.58c0,40.36,42,68.64,56,73.09,14.68,4.66,29,4,42.62,0,14.65-4.32,56-32.68,56-73V99.11C240.37,58.76,215.31,26,184.37,26Z"/><path class="cls-14" d="M85.71,130.66c5.73-4.61,20-82.33,20.72-86.43L82,52S80.72,134.68,85.71,130.66Z"/><path class="cls-14" d="M222.14,49.13s14.47,79.44,19,83.23,3.38-71.05,3.38-71.05Z"/><path class="cls-15" d="M128.56,125.26a9.18,9.18,0,1,0,9.16,9.19A9.18,9.18,0,0,0,128.56,125.26Z"/><path class="cls-15" d="M198.46,125.28a9.18,9.18,0,1,0,9.17,9.18A9.18,9.18,0,0,0,198.46,125.28Z"/><path class="cls-14" d="M221.77,110.09c-10.68-7.15-31.09-4.66-34.2-4.35-2.72.26-8.28,2.7-8,5.42s9.84,4.73,12.56,4.45c10.37-1,20-2,34.59,1.36C229.37,117.59,224.05,111.61,221.77,110.09Z"/><path class="cls-14" d="M140.81,106.16c-3.11-.31-23.52-2.81-34.21,4.33-2.27,1.52-7.59,7.56-4.93,6.89,14.9-3.79,24.22-2.38,34.59-1.34,2.71.27,12.29-1.73,12.56-4.45S143.53,106.44,140.81,106.16Z"/><path class="cls-16" d="M135.29,183.49c4.47,9.27,11.05,24.39,31,24.36,20.9,0,33.84-31.93,33.84-31.93C173.75,188.4,158.72,189.9,135.29,183.49Z"/><path class="cls-8" d="M140.55,184.82c1.66,5.48,9.36,7.74,24.93,6.63,20.61-1.48,25.2-6.55,27.76-12.42C176.62,186.65,153.93,187.73,140.55,184.82Z"/><path class="cls-17" d="M166,198.47a15.51,15.51,0,0,0-8.51-3.09c-4.6,0-13.28,2.89-13.28,2.89,4,5.49,11.28,9.46,21.5,9.51,12.92.07,20.79-10.37,20.79-10.37s-8.07-2-13.68-2C169.21,195.35,166,198.47,166,198.47Z"/><path class="cls-18" d="M175.28,164.38c-8,6.65-19.31,4.64-22.63,0,0,0,3.33,12,11.31,11.59S183.26,157.72,175.28,164.38Z"/><path class="cls-14" d="M184.86,4c-35.41-8.18-55.05,5.51-55.05,5.51S124.6,5.35,128.62,0C118.8,1.34,116.12,11.45,113,19.19a24.66,24.66,0,0,0-17.7,1s7.89,6.1-.59,13.1C70.9,53,82.2,75.87,82.2,75.87S91,97.69,95.14,93.28c15.63-16.52,27.9-25.22,30.58-37.72,0,0,16.61,21.52,39,26.56,18.45,4.17,41.29,7.74,51,5.81-8.32-8.34-10.71-24.11-10.71-24.11s26.51,48.56,39.28,12.5C257.76,38.08,210.19,9.87,184.86,4Z"/><path class="cls-19" d="M151.09,125.44s0,20.43-9.78,25.37c-7.79,3.95-29.67,3.55-35.65-2s-8.52-25.27-8.52-25.27"/><path class="cls-20" d="M95.33,125s36.53-7.47,57.56.76"/><line class="cls-21" x1="98.76" y1="127.55" x2="79.52" y2="114.39"/><path class="cls-19" d="M176,125.44s0,20.51,9.83,25.47c7.82,4,29.77,3.56,35.78-2s8.57-25.36,8.57-25.36"/><path class="cls-22" d="M174.24,125.76C196.93,118.21,232,125,232,125"/><line class="cls-21" x1="228.57" y1="127.55" x2="247.83" y2="114.39"/><path class="cls-23" d="M152.89,129.23s6.58-3.35,11.11-3.35a23,23,0,0,1,10.24,2.75"/><path class="cls-5" d="M438.1,257l-5.55,7.28c-1.43,1.83-8.16,5-5.27,7.77,3.51,3.36,7.81,3.5,9.17,2l9.73-10.77c1.46-1.78,3.52-5.15.46-8.06C443.13,251.92,439.45,255.55,438.1,257Z"/><rect class="cls-24" x="279.65" y="214.38" width="156.03" height="204.95"/><rect class="cls-8" x="289.75" y="225.61" width="135.85" height="181.43"/><path class="cls-25" d="M387.36,209.62H370.13v-8.31a5,5,0,0,0-5.05-5.05H350.26a5,5,0,0,0-5.05,5.05v8.31H328a5,5,0,0,0-5.05,5V226A5,5,0,0,0,328,231h59.38a5,5,0,0,0,5.05-5.05V214.68A5.05,5.05,0,0,0,387.36,209.62Zm-29.69,1.2a4.92,4.92,0,1,1,4.91-4.91A4.91,4.91,0,0,1,357.67,210.82Z"/><rect class="cls-13" x="340.3" y="254.47" width="75.05" height="3.48"/><rect class="cls-11" x="340.3" y="263.34" width="75.05" height="3.49"/><rect class="cls-11" x="340.3" y="272.22" width="75.05" height="3.49"/><rect class="cls-11" x="340.3" y="281.09" width="75.05" height="3.48"/><rect class="cls-13" x="299.6" y="300.56" width="116.5" height="3.48"/><rect class="cls-11" x="299.6" y="308.15" width="116.5" height="3.49"/><rect class="cls-11" x="299.6" y="315.75" width="116.5" height="3.48"/><rect class="cls-11" x="299.6" y="323.34" width="116.5" height="3.49"/><rect class="cls-11" x="299.6" y="330.93" width="116.5" height="3.49"/><rect class="cls-11" x="299.6" y="338.53" width="116.5" height="3.48"/><rect class="cls-13" x="299.6" y="357.08" width="116.5" height="3.48"/><rect class="cls-11" x="299.6" y="364.67" width="116.5" height="3.49"/><rect class="cls-11" x="299.6" y="372.26" width="116.5" height="3.49"/><rect class="cls-11" x="299.6" y="379.85" width="116.5" height="3.48"/><path class="cls-26" d="M345.21,201.31v8.31H328a5.05,5.05,0,0,0-5.05,5.06V226A5,5,0,0,0,328,231h29.69V210.83a4.92,4.92,0,1,1,0-9.83v-4.74h-7.41A5,5,0,0,0,345.21,201.31Z"/><circle class="cls-27" cx="316.12" cy="267.81" r="17.27"/><rect class="cls-8" x="312.56" y="257.71" width="7.13" height="20.21"/><rect class="cls-8" x="306.02" y="264.24" width="20.21" height="7.13"/><path class="cls-5" d="M434.32,306l-1.77,2.24c-1.43,1.84-3.13,5-.24,7.77,3.52,3.35,7.19-.28,8.55-1.75l1.54-1.95c1.46-1.78,3.52-5.15.47-8.06C439.34,300.92,435.67,304.55,434.32,306Z"/><path class="cls-5" d="M434.32,291.62l-1.77,2.24c-1.43,1.83-3.13,5-.24,7.77,3.52,3.35,7.19-.28,8.55-1.76l1.54-1.95c1.46-1.77,3.52-5.15.47-8.05C439.34,286.51,435.68,290.14,434.32,291.62Z"/><path class="cls-5" d="M434.32,277.11l-1.77,2.23c-1.43,1.83-3.13,5-.24,7.77,3.52,3.36,7.19-.28,8.55-1.75l1.54-2c1.46-1.77,3.52-5.14.47-8C439.34,272,435.68,275.63,434.32,277.11Z"/></g></g></svg>